<svg width="24" height="24" viewBox="0 0 24 24" fill="none" xmlns="http://www.w3.org/2000/svg">
<path d="M13.2 12L9.4308 7.89604C9.27618 7.73988 9.18944 7.529 9.18944 7.30924C9.18944 7.08948 9.27618 6.8786 9.4308 6.72244C9.50673 6.64534 9.59723 6.58411 9.69705 6.54232C9.79686 6.50053 9.90399 6.479 10.0122 6.479C10.1204 6.479 10.2275 6.50053 10.3274 6.54232C10.4272 6.58411 10.5177 6.64534 10.5936 6.72244L15.1896 11.412C15.344 11.5686 15.4306 11.7796 15.4306 11.9994C15.4306 12.2193 15.344 12.4303 15.1896 12.5868L10.5936 17.2764C10.5177 17.3535 10.4272 17.4148 10.3274 17.4566C10.2275 17.4984 10.1204 17.5199 10.0122 17.5199C9.90399 17.5199 9.79686 17.4984 9.69705 17.4566C9.59723 17.4148 9.50673 17.3535 9.4308 17.2764C9.27618 17.1203 9.18944 16.9094 9.18944 16.6896C9.18944 16.4699 9.27618 16.259 9.4308 16.1028L13.2 12Z" fill="#C4C4C4"/>
</svg>
