<svg width="24" height="24" viewBox="0 0 24 24" fill="none" xmlns="http://www.w3.org/2000/svg">
<path d="M5.4192 14.9424C5.9424 15.4776 6.6708 15.5196 7.3104 14.9424L12 10.446L16.6896 14.9424C17.3292 15.5196 18.0588 15.4776 18.5784 14.9424C19.1016 14.4084 19.068 13.506 18.5784 13.0044C18.0912 12.5028 12.9444 7.60201 12.9444 7.60201C12.8218 7.47499 12.6749 7.37396 12.5125 7.30496C12.35 7.23595 12.1753 7.20039 11.9988 7.20039C11.8223 7.20039 11.6476 7.23595 11.4851 7.30496C11.3227 7.37396 11.1758 7.47499 11.0532 7.60201C11.0532 7.60201 5.9088 12.5028 5.4192 13.0044C4.9284 13.506 4.896 14.4084 5.4192 14.9424Z" fill="black"/>
</svg>
