<svg width="24" height="24" viewBox="0 0 24 24" fill="none" xmlns="http://www.w3.org/2000/svg">
<path d="M5.4192 9.05759C5.9424 8.52239 6.6708 8.48039 7.3104 9.05759L12 13.554L16.6896 9.05759C17.3292 8.48039 18.0588 8.52239 18.5784 9.05759C19.1016 9.59159 19.068 10.494 18.5784 10.9956C18.0912 11.4972 12.9444 16.398 12.9444 16.398C12.8218 16.525 12.6749 16.626 12.5125 16.695C12.35 16.764 12.1753 16.7996 11.9988 16.7996C11.8223 16.7996 11.6476 16.764 11.4851 16.695C11.3227 16.626 11.1758 16.525 11.0532 16.398C11.0532 16.398 5.9088 11.4972 5.4192 10.9956C4.9284 10.494 4.896 9.59159 5.4192 9.05759Z" fill="black"/>
</svg>
