<svg width="24" height="24" viewBox="0 0 24 24" fill="none" xmlns="http://www.w3.org/2000/svg">
<path d="M22.3705 20.5768L18.0758 16.2947C19.4615 14.5294 20.2133 12.3495 20.2105 10.1053C20.2105 8.10663 19.6179 6.15289 18.5075 4.49108C17.3971 2.82928 15.8189 1.53407 13.9724 0.769222C12.1259 0.00437842 10.0941 -0.195739 8.13383 0.194174C6.1736 0.584088 4.37301 1.54652 2.95977 2.95977C1.54652 4.37301 0.584088 6.1736 0.194174 8.13383C-0.195739 10.0941 0.00437842 12.1259 0.769222 13.9724C1.53407 15.8189 2.82928 17.3971 4.49108 18.5075C6.15289 19.6179 8.10663 20.2105 10.1053 20.2105C12.3495 20.2133 14.5294 19.4615 16.2947 18.0758L20.5768 22.3705C20.6943 22.4889 20.834 22.5829 20.9879 22.647C21.1418 22.7112 21.3069 22.7442 21.4737 22.7442C21.6404 22.7442 21.8055 22.7112 21.9595 22.647C22.1134 22.5829 22.2531 22.4889 22.3705 22.3705C22.4889 22.2531 22.5829 22.1134 22.647 21.9595C22.7112 21.8055 22.7442 21.6404 22.7442 21.4737C22.7442 21.3069 22.7112 21.1418 22.647 20.9879C22.5829 20.834 22.4889 20.6943 22.3705 20.5768V20.5768ZM2.52632 10.1053C2.52632 8.60629 2.97082 7.14098 3.8036 5.89463C4.63639 4.64828 5.82006 3.67687 7.20493 3.10323C8.5898 2.5296 10.1137 2.37951 11.5838 2.67195C13.054 2.96438 14.4045 3.68621 15.4644 4.74614C16.5243 5.80608 17.2462 7.15652 17.5386 8.62669C17.831 10.0969 17.6809 11.6207 17.1073 13.0056C16.5337 14.3905 15.5623 15.5741 14.3159 16.4069C13.0696 17.2397 11.6042 17.6842 10.1053 17.6842C8.09521 17.6842 6.16747 16.8857 4.74614 15.4644C3.32481 14.0431 2.52632 12.1153 2.52632 10.1053Z" fill="black"/>
</svg>
