<svg width="24" height="24" viewBox="0 0 24 24" fill="none" xmlns="http://www.w3.org/2000/svg">
<path d="M21.7953 16.5456L18.0454 20.295C18.042 20.2983 18.0382 20.3011 18.0349 20.3045C18.0118 20.327 17.9881 20.3488 17.9632 20.3692C17.9497 20.3805 17.9353 20.3901 17.9213 20.4005C17.9059 20.412 17.8908 20.424 17.8748 20.4348C17.8585 20.4456 17.8418 20.455 17.8253 20.4648C17.8103 20.4738 17.7956 20.4832 17.7803 20.4915C17.7636 20.5004 17.7463 20.508 17.7292 20.516C17.713 20.5237 17.6971 20.5318 17.6804 20.5386C17.664 20.5455 17.647 20.551 17.6303 20.557C17.6125 20.5635 17.5947 20.5703 17.5764 20.5757C17.5597 20.5809 17.5429 20.5845 17.5259 20.5889C17.5072 20.5935 17.4888 20.5988 17.4697 20.6025C17.4503 20.6064 17.4307 20.6086 17.4111 20.6115C17.3944 20.6139 17.3779 20.6171 17.361 20.6188C17.3241 20.6223 17.287 20.6244 17.25 20.6244C17.213 20.6244 17.1759 20.6223 17.139 20.6188C17.1222 20.6171 17.1059 20.614 17.0893 20.6115C17.0696 20.6087 17.0498 20.6065 17.0303 20.6025C17.0113 20.5988 16.993 20.5935 16.9745 20.589C16.9574 20.5846 16.9402 20.5809 16.9235 20.5758C16.9053 20.5703 16.8878 20.5635 16.87 20.5571C16.8532 20.5511 16.8361 20.5455 16.8194 20.5386C16.8029 20.5318 16.7871 20.5236 16.7708 20.5161C16.7538 20.508 16.7365 20.5004 16.7197 20.4915C16.7043 20.4832 16.6897 20.4737 16.6746 20.4647C16.6581 20.4549 16.6414 20.4456 16.6252 20.4348C16.6089 20.4239 16.5937 20.4117 16.5779 20.4C16.5642 20.3897 16.5502 20.3803 16.5368 20.3693C16.5102 20.3473 16.4845 20.3241 16.46 20.2998C16.4582 20.298 16.4562 20.2965 16.4545 20.2949L12.7045 16.5449C12.4964 16.3333 12.3803 16.0481 12.3815 15.7513C12.3827 15.4545 12.5011 15.1702 12.711 14.9604C12.9208 14.7505 13.2051 14.6321 13.5019 14.6309C13.7987 14.6297 14.0839 14.7458 14.2955 14.9539L16.125 16.7833V10.4992C16.125 10.2008 16.2435 9.91469 16.4545 9.70371C16.6655 9.49273 16.9516 9.3742 17.25 9.3742C17.5484 9.3742 17.8345 9.49273 18.0455 9.70371C18.2565 9.91469 18.375 10.2008 18.375 10.4992V16.7835L20.2045 14.9543C20.4157 14.7443 20.7016 14.6266 20.9994 14.6271C21.2973 14.6275 21.5828 14.7461 21.7934 14.9567C22.0039 15.1673 22.1224 15.4529 22.1227 15.7507C22.1231 16.0485 22.0053 16.3344 21.7953 16.5455V16.5456ZM11.25 10.8744H4.5C4.20163 10.8744 3.91548 10.9929 3.7045 11.2039C3.49353 11.4149 3.375 11.701 3.375 11.9994C3.375 12.2978 3.49353 12.5839 3.7045 12.7949C3.91548 13.0059 4.20163 13.1244 4.5 13.1244H11.2499C11.5483 13.1244 11.8344 13.0059 12.0454 12.7949C12.2564 12.5839 12.3749 12.2978 12.3749 11.9994C12.3749 11.701 12.2564 11.4149 12.0454 11.2039C11.8344 10.9929 11.5483 10.8744 11.2499 10.8744H11.25ZM4.5 7.12439H17.2499C17.5483 7.12439 17.8344 7.00586 18.0454 6.79488C18.2564 6.58391 18.3749 6.29776 18.3749 5.99939C18.3749 5.70102 18.2564 5.41487 18.0454 5.20389C17.8344 4.99292 17.5483 4.87439 17.2499 4.87439H4.5C4.20163 4.87439 3.91548 4.99292 3.7045 5.20389C3.49353 5.41487 3.375 5.70102 3.375 5.99939C3.375 6.29776 3.49353 6.58391 3.7045 6.79488C3.91548 7.00586 4.20163 7.12439 4.5 7.12439V7.12439ZM9.75 16.8744H4.5C4.20163 16.8744 3.91548 16.9929 3.7045 17.2039C3.49353 17.4149 3.375 17.701 3.375 17.9994C3.375 18.2978 3.49353 18.5839 3.7045 18.7949C3.91548 19.0059 4.20163 19.1244 4.5 19.1244H9.75C10.0484 19.1244 10.3345 19.0059 10.5455 18.7949C10.7565 18.5839 10.875 18.2978 10.875 17.9994C10.875 17.701 10.7565 17.4149 10.5455 17.2039C10.3345 16.9929 10.0484 16.8744 9.75 16.8744V16.8744Z" fill="black"/>
</svg>
